<?xml version="1.0" encoding="UTF-8" standalone="no"?>
<svg
   xmlns:dc="http://purl.org/dc/elements/1.1/"
   xmlns:cc="http://creativecommons.org/ns#"
   xmlns:rdf="http://www.w3.org/1999/02/22-rdf-syntax-ns#"
   xmlns:svg="http://www.w3.org/2000/svg"
   xmlns="http://www.w3.org/2000/svg"
   xmlns:sodipodi="http://sodipodi.sourceforge.net/DTD/sodipodi-0.dtd"
   xmlns:inkscape="http://www.inkscape.org/namespaces/inkscape"
   t="1554608990069"
   class="icon"
   style=""
   viewBox="0 0 1024 1024"
   version="1.1"
   p-id="3907"
   width="128"
   height="128"
   id="svg8"
   sodipodi:docname="baseline-attack.svg"
   inkscape:version="0.92.3 (2405546, 2018-03-11)">
  <metadata
     id="metadata12">
    <rdf:RDF>
      <cc:Work
         rdf:about="">
        <dc:format>image/svg+xml</dc:format>
        <dc:type
           rdf:resource="http://purl.org/dc/dcmitype/StillImage" />
      </cc:Work>
    </rdf:RDF>
  </metadata>
  <sodipodi:namedview
     pagecolor="#ffffff"
     bordercolor="#666666"
     borderopacity="1"
     objecttolerance="10"
     gridtolerance="10"
     guidetolerance="10"
     inkscape:pageopacity="0"
     inkscape:pageshadow="2"
     inkscape:window-width="1920"
     inkscape:window-height="1025"
     id="namedview10"
     showgrid="false"
     inkscape:zoom="1.84375"
     inkscape:cx="64"
     inkscape:cy="64"
     inkscape:window-x="0"
     inkscape:window-y="27"
     inkscape:window-maximized="1"
     inkscape:current-layer="svg8" />
  <defs
     id="defs4">
    <style
       type="text/css"
       id="style2" />
    <filter
       style="color-interpolation-filters:sRGB;"
       inkscape:label="Invert"
       id="filter72">
      <feColorMatrix
         values="0 -1 0 0 1 -1 0 0 0 1 0 0 -1 0 1 0.21 0.72 0.07 1 0 "
         result="fbSourceGraphic"
         id="feColorMatrix70" />
      <feColorMatrix
         result="fbSourceGraphicAlpha"
         in="fbSourceGraphic"
         values="0 0 0 -1 0 0 0 0 -1 0 0 0 0 -1 0 0 0 0 1 0"
         id="feColorMatrix74" />
      <feColorMatrix
         id="feColorMatrix76"
         values="0 -1 0 0 1 -1 0 0 0 1 0 0 -1 0 1 0.21 0.72 0.07 1 0 "
         result="fbSourceGraphic"
         in="fbSourceGraphic" />
      <feColorMatrix
         result="fbSourceGraphicAlpha"
         in="fbSourceGraphic"
         values="0 0 0 -1 0 0 0 0 -1 0 0 0 0 -1 0 0 0 0 1 0"
         id="feColorMatrix82" />
      <feColorMatrix
         id="feColorMatrix84"
         values="0 -1 0 0 1 -1 0 0 0 1 0 0 -1 0 1 0.21 0.72 0.07 1 0 "
         result="fbSourceGraphic"
         in="fbSourceGraphic" />
      <feColorMatrix
         result="fbSourceGraphicAlpha"
         in="fbSourceGraphic"
         values="0 0 0 -1 0 0 0 0 -1 0 0 0 0 -1 0 0 0 0 1 0"
         id="feColorMatrix86" />
      <feColorMatrix
         id="feColorMatrix88"
         values="0 -1 0 0 1 -1 0 0 0 1 0 0 -1 0 1 0.21 0.72 0.07 1 0 "
         result="fbSourceGraphic"
         in="fbSourceGraphic" />
      <feColorMatrix
         result="fbSourceGraphicAlpha"
         in="fbSourceGraphic"
         values="0 0 0 -1 0 0 0 0 -1 0 0 0 0 -1 0 0 0 0 1 0"
         id="feColorMatrix90" />
      <feColorMatrix
         id="feColorMatrix92"
         type="hueRotate"
         values="180"
         result="color1"
         in="fbSourceGraphic" />
      <feColorMatrix
         id="feColorMatrix94"
         values="0 -1 0 0 1 -1 0 0 0 1 0 0 -1 0 1 -0.21 -0.72 -0.07 2 0 "
         result="fbSourceGraphic" />
      <feColorMatrix
         result="fbSourceGraphicAlpha"
         in="fbSourceGraphic"
         values="0 0 0 -1 0 0 0 0 -1 0 0 0 0 -1 0 0 0 0 1 0"
         id="feColorMatrix96" />
      <feColorMatrix
         id="feColorMatrix98"
         type="hueRotate"
         values="180"
         result="color1"
         in="fbSourceGraphic" />
      <feColorMatrix
         id="feColorMatrix100"
         values="0 -1 0 0 1 -1 0 0 0 1 0 0 -1 0 1 -0.21 -0.72 -0.07 2 0 "
         result="fbSourceGraphic" />
      <feColorMatrix
         result="fbSourceGraphicAlpha"
         in="fbSourceGraphic"
         values="0 0 0 -1 0 0 0 0 -1 0 0 0 0 -1 0 0 0 0 1 0"
         id="feColorMatrix106" />
      <feColorMatrix
         id="feColorMatrix108"
         type="hueRotate"
         values="180"
         result="color1"
         in="fbSourceGraphic" />
      <feColorMatrix
         id="feColorMatrix110"
         values="0 -1 0 0 1 -1 0 0 0 1 0 0 -1 0 1 -0.21 -0.72 -0.07 2 0 "
         result="fbSourceGraphic" />
      <feColorMatrix
         result="fbSourceGraphicAlpha"
         in="fbSourceGraphic"
         values="0 0 0 -1 0 0 0 0 -1 0 0 0 0 -1 0 0 0 0 1 0"
         id="feColorMatrix112" />
      <feColorMatrix
         id="feColorMatrix114"
         type="hueRotate"
         values="180"
         result="color1"
         in="fbSourceGraphic" />
      <feColorMatrix
         id="feColorMatrix116"
         values="0 -1 0 0 1 -1 0 0 0 1 0 0 -1 0 1 -0.21 -0.72 -0.07 2 0 "
         result="fbSourceGraphic" />
      <feColorMatrix
         result="fbSourceGraphicAlpha"
         in="fbSourceGraphic"
         values="0 0 0 -1 0 0 0 0 -1 0 0 0 0 -1 0 0 0 0 1 0"
         id="feColorMatrix118" />
      <feColorMatrix
         id="feColorMatrix120"
         type="hueRotate"
         values="180"
         result="color1"
         in="fbSourceGraphic" />
      <feColorMatrix
         id="feColorMatrix122"
         values="0 -1 0 0 1 -1 0 0 0 1 0 0 -1 0 1 -0.21 -0.72 -0.07 2 0 "
         result="color2" />
    </filter>
  </defs>
  <path
     d="M918.674286 306.224762c5.851429-5.851429 9.427302-13.815873 9.427301-22.593016V156.200635c0-17.554286-14.303492-31.857778-31.857777-31.857778h-121.904762c-10.565079-2.275556-21.942857 0.16254-30.069842 8.289524l-231.944127 232.431746-230.806349-230.48127c-8.126984-8.289524-19.504762-10.565079-30.069841-8.289524H129.869206c-17.554286 0-31.857778 14.140952-31.857777 31.695238v126.780953c0 8.777143 3.575873 16.741587 9.427301 22.593016 0.16254 0.16254 0.16254 0.325079 0.32508 0.487619l231.131428 230.806349-143.847619 143.847619-39.984762-40.309841c-12.840635-12.840635-33.645714-12.840635-46.486349 0-12.840635 12.840635-12.840635 33.645714 0 46.648889l102.725079 103.375238-101.912381 103.212698c-12.840635 12.840635-12.840635 33.808254 0 46.648889 12.840635 12.840635 33.645714 12.840635 46.48635 0l101.912381-103.212698 102.562539 103.212698c12.840635 12.840635 33.645714 12.840635 46.486349 0 12.840635-12.840635 12.840635-33.645714 0-46.648889l-38.196825-38.521905 144.172698-144.172698 143.197461 143.034921-38.196826 38.359365c-12.840635 12.840635-12.840635 33.645714 0 46.486349 12.840635 12.840635 33.645714 12.840635 46.48635 0l102.4-102.72508 101.424761 102.4c12.840635 12.840635 33.645714 12.840635 46.48635 0 12.840635-12.840635 12.840635-33.645714 0-46.486349l-101.587302-102.4 102.56254-102.887619c12.840635-12.840635 12.840635-33.645714 0-46.486349-12.840635-12.840635-33.645714-12.840635-46.486349 0l-39.984762 39.984762-143.034921-142.872381 231.944127-232.431746c0.487619-0.16254 0.487619-0.487619 0.650159-0.487619zM161.564444 268.678095v-78.994285H243.809524l222.029206 221.866666-80.619682 80.619683L161.564444 268.678095z m621.389207 459.824762l-80.457143 80.782222-143.19746-143.03492 80.619682-80.782222 143.034921 143.03492z m81.432381-460.96254l-542.069842 542.88254-80.619682-81.107301 540.444444-541.094604h82.407619v79.319365z"
     p-id="3908"
     fill="#2c2c2c"
     id="path6"
     style="filter:url(#filter72)" />
</svg>
